<?xml version="1.0" encoding="UTF-8" standalone="no"?>
<!-- Generator: Adobe Illustrator 15.0.0, SVG Export Plug-In . SVG Version: 6.00 Build 0)  -->

<svg
   xmlns:dc="http://purl.org/dc/elements/1.1/"
   xmlns:cc="http://creativecommons.org/ns#"
   xmlns:rdf="http://www.w3.org/1999/02/22-rdf-syntax-ns#"
   xmlns:svg="http://www.w3.org/2000/svg"
   xmlns="http://www.w3.org/2000/svg"
   xmlns:sodipodi="http://sodipodi.sourceforge.net/DTD/sodipodi-0.dtd"
   xmlns:inkscape="http://www.inkscape.org/namespaces/inkscape"
   version="1.1"
   id="Layer_1"
   x="0px"
   y="0px"
   width="512px"
   height="512px"
   viewBox="0 0 512 512"
   enable-background="new 0 0 512 512"
   xml:space="preserve"
   inkscape:version="0.48.4 r9939"
   sodipodi:docname="cart-white.svg"><metadata
   id="metadata3047"><rdf:RDF><cc:Work
       rdf:about=""><dc:format>image/svg+xml</dc:format><dc:type
         rdf:resource="http://purl.org/dc/dcmitype/StillImage" /><dc:title></dc:title></cc:Work></rdf:RDF></metadata><defs
   id="defs3045"><filter
     id="filter3049"
     inkscape:label="Invert"
     x="0"
     y="0"
     width="1"
     height="1"
     inkscape:menu="Color"
     inkscape:menu-tooltip="Invert colors"
     color-interpolation-filters="sRGB"><feColorMatrix
       id="feColorMatrix3051"
       type="saturate"
       values="1"
       result="fbSourceGraphic" /><feColorMatrix
       id="feColorMatrix3053"
       in="fbSourceGraphic"
       values="-1 0 0 0 1 0 -1 0 0 1 0 0 -1 0 1 0 0 0 1 0 " /></filter></defs><sodipodi:namedview
   pagecolor="#ffffff"
   bordercolor="#666666"
   borderopacity="1"
   objecttolerance="10"
   gridtolerance="10"
   guidetolerance="10"
   inkscape:pageopacity="0"
   inkscape:pageshadow="2"
   inkscape:window-width="640"
   inkscape:window-height="480"
   id="namedview3043"
   showgrid="false"
   inkscape:zoom="0.4609375"
   inkscape:cx="256"
   inkscape:cy="256"
   inkscape:window-x="269"
   inkscape:window-y="143"
   inkscape:window-maximized="0"
   inkscape:current-layer="Layer_1" />
<g
   id="g3023"
   style="filter:url(#filter3049)">
	<rect
   x="249.373"
   y="245.889"
   fill="none"
   width="77.855"
   height="50.148"
   id="rect3025" />
	<polygon
   fill="none"
   points="409.02,245.889 357.17,245.889 357.17,296.037 384.268,296.037  "
   id="polygon3027" />
	<polygon
   fill="none"
   points="447.159,168.618 357.17,168.618 357.17,215.938 423.791,215.938  "
   id="polygon3029" />
	<polygon
   fill="none"
   points="219.434,168.618 126.411,168.618 149.778,215.938 219.434,215.938  "
   id="polygon3031" />
	<rect
   x="249.373"
   y="168.618"
   fill="none"
   width="77.855"
   height="47.32"
   id="rect3033" />
	<polygon
   fill="none"
   points="219.434,296.037 219.434,245.889 164.557,245.889 189.302,296.037  "
   id="polygon3035" />
	<path
   d="M401.558,325.971L512,104.733l-25.938-14.975l-24.124,48.909H357.17h-29.94h-77.855h-29.939H111.641L87.518,89.782v-0.023   H0v29.95h69.051l102.968,206.262H401.558L401.558,325.971z M357.17,168.618h89.989l-23.369,47.32h-66.62V168.618z M357.17,245.889   h51.85l-24.753,50.148H357.17V245.889L357.17,245.889z M249.373,168.618h77.855v47.32h-77.855V168.618z M249.373,245.889h77.855   v50.148h-77.855V245.889z M126.411,168.618h93.021v47.32h-69.656L126.411,168.618z M219.434,245.889v50.148h-30.133l-24.744-50.148   H219.434L219.434,245.889z"
   id="path3037" />
	<path
   d="M200.9,343.758c-21.673,0-39.246,17.564-39.246,39.246c0,21.672,17.572,39.238,39.246,39.238   c21.675,0,39.247-17.566,39.247-39.238C240.147,361.322,222.573,343.758,200.9,343.758z"
   id="path3039" />
	<path
   d="M383.361,343.758c-21.674,0-39.237,17.564-39.237,39.246c0,21.672,17.563,39.238,39.237,39.238   c21.671,0,39.243-17.566,39.243-39.238C422.604,361.322,405.031,343.758,383.361,343.758z"
   id="path3041" />
</g>
</svg>