<?xml version="1.0" encoding="utf-8"?>
<!-- Generator: Adobe Illustrator 17.0.0, SVG Export Plug-In . SVG Version: 6.00 Build 0)  -->
<!DOCTYPE svg PUBLIC "-//W3C//DTD SVG 1.1//EN" "http://www.w3.org/Graphics/SVG/1.1/DTD/svg11.dtd">
<svg version="1.1" id="Layer_1" xmlns="http://www.w3.org/2000/svg" xmlns:xlink="http://www.w3.org/1999/xlink" x="0px" y="0px"
	 width="245px" height="20px" viewBox="0 0 245 20" enable-background="new 0 0 245 20" xml:space="preserve">
<g>
	<g>
		<path fill-rule="evenodd" clip-rule="evenodd" fill="#666666" d="M119.466,16.29c-0.061,0-0.121,0-0.182,0
			c-0.612-0.284-0.643-1.15-1.001-1.686c-0.843-0.009-1.438-0.263-1.868-0.683c1.416-0.714,2.673-1.583,2.504-3.874
			c-0.227-0.217-0.52-0.284-0.729-0.504c-0.199-0.208-0.214-0.548-0.5-0.68c-0.51,1.847-0.774,2.996-1.779,4.008
			c-0.498,0.504-1.301,0.653-1.73,1.186c-0.145,0.179-0.162,0.615-0.366,0.866c-0.513,0.627-1.764,0.364-2.642,0.045
			c-0.508-0.183-1.029-0.612-1.504-0.59c-0.474,0.018-0.719,0.456-1.14,0.456c0.039-0.205,0.125-0.361,0.228-0.505
			c-0.287-0.126-0.623-0.431-0.455-0.865c-2.842-1.648-6.663-3.081-11.029-3.28c-1.046-0.048-2.166-0.014-3.098,0.136
			c-0.207,0.115-0.222,0.418-0.365,0.595c-0.678,0.601-2.454,0.443-2.416-0.595c0.034-0.94,1.902-1.071,2.916-1.048
			c4.619,0.105,9.334,1.306,12.534,2.69c-1.328-1.196-2.996-2.443-4.375-3.736c-0.19,0.1-0.27,0.309-0.365,0.501
			c-0.867-0.347-1.974-0.458-3.147-0.501c0.23-1.593-2.092-1.527-2.096-0.184C91.384,7.676,85.835,8.324,81.41,9.5
			c-1.057,0.281-2.319,0.534-3.007,1.001c-0.333,0.23-0.71,1.057-1.232,1.23c-0.411,0.14-1.169,0.111-1.413-0.452
			c0-0.063,0-0.124,0-0.186c0.631-0.71,1.677-0.854,2.553-1.138C84.6,7.923,91.63,6.073,98.547,4.576
			c-0.554-0.466-1.635-1.857-0.821-2.87c0.285,0.413,0.241,0.713,0.593,0.956c0.545,0.376,1.555,0.206,1.732,0.957
			c0.081-1.134,1.326-1.105,1.914-1.731c-0.238,0.552-0.773,1.143-0.455,1.96c4.169-1.099,11.392-2.965,14.582,0.229
			c0.898,0.897,1.321,2.144,1.551,3.78c0.349-0.008,0.302-0.435,0.455-0.636c0.169-0.22,0.386-0.321,0.685-0.41
			c0.046-2.191-0.601-3.685-2.462-3.966c0.222-0.666,1.446-0.692,2.233-0.5c-0.32-1.004,0.245-2.026,0.774-2.6
			c0.032,0,0.063,0,0.092,0c0.478,0.568,1.112,1.51,0.684,2.553c0.821-0.173,2.096-0.284,2.279,0.548
			c-1.842,0.271-2.465,1.76-2.416,3.919c0.282,0.135,0.5,0.222,0.684,0.456c0.151,0.193,0.123,0.617,0.455,0.636
			c0.407-3.497,2.55-5.848,6.472-5.605c3.331,0.207,6.684,1.145,9.662,1.596c0.314-0.845-0.28-1.416-0.501-2.008
			c0.519,0.683,1.803,0.6,1.869,1.733c0.299-0.258,0.372-0.487,0.774-0.636c0.285-0.108,0.656-0.086,0.91-0.231
			c0.421-0.236,0.391-0.652,0.685-1.001c0.64,0.807,0.004,1.963-0.456,2.46c-0.129,0.141-0.376,0.251-0.319,0.41
			c6.842,1.601,13.868,3.27,20.235,5.379c0.686,0.226,2.459,0.596,2.416,1.278c-0.029,0.418-0.556,0.694-1.23,0.546
			c-0.681-0.15-0.664-0.776-1.186-1.186c-0.43-0.336-1.189-0.503-1.913-0.728c-4.691-1.467-10.711-2.186-16.727-1.825
			c-0.153-1.588-2.14-1.147-2.096,0.184c-1.116,0.037-2.148,0.16-3.011,0.456c-0.249-0.07-0.327-0.311-0.499-0.456
			c-1.325,1.317-2.855,2.431-4.237,3.69c-0.054-0.007-0.083,0.012-0.093,0.046c-0.066,0.027,0.004,0.057,0,0
			c0.054,0.007,0.081-0.011,0.093-0.046c1.187-0.502,2.271-0.888,3.554-1.229c2.337-0.624,5.341-1.286,8.067-1.415
			c1.237-0.059,3.654-0.026,3.646,1.094c-0.006,0.961-1.418,1.095-2.096,0.683c-0.301-0.182-0.412-0.599-0.685-0.729
			c-0.444-0.209-1.288-0.136-2.005-0.136c-4.926,0-8.867,1.517-11.985,3.236c0.114,0.442-0.083,0.823-0.501,0.865
			c0.046,0.21,0.351,0.363,0.227,0.593c-0.438-0.152-0.656-0.484-1.14-0.5c-0.461-0.017-0.924,0.351-1.414,0.546
			c-0.881,0.351-2.199,0.669-2.733-0.046c-0.149-0.2-0.178-0.581-0.272-0.729c-0.265-0.406-0.918-0.571-1.323-0.865
			c-1.199-0.87-1.775-2.381-2.096-4.012c-0.02-0.102,0.035-0.394-0.182-0.407c-0.266,0.162-0.258,0.471-0.458,0.68
			c-0.212,0.231-0.55,0.272-0.727,0.549c-0.149,2.245,1.075,3.114,2.46,3.829c-0.389,0.472-1.109,0.621-1.868,0.728
			C120.09,15.183,120.064,16.023,119.466,16.29z M130.907,11.731c-0.04-0.007-0.046,0.019-0.046,0.048c-0.066,0.027,0.004,0.054,0,0
			C130.899,11.786,130.904,11.76,130.907,11.731c1.493-1.283,3.032-2.525,4.147-4.191c-0.515-0.203-1.353-0.238-1.96-0.091
			c-0.832-2.505-3.6-4.135-6.974-3.875c-2.438,0.188-4.246,1.607-4.237,4.284c0.379,0,0.759,0,1.139,0
			c-0.03,0.304,0.061,0.73-0.046,0.958c-0.347,0-0.698,0-1.048,0c-0.204,3.762,4.876,4.769,6.79,2.505
			c0.865-1.024,1.073-3.193-0.41-3.782c-0.708-0.281-1.656,0.021-1.549,0.774c0.08,0.566,0.657,0.492,1.321,0.595
			c-0.043,1.507-2.436,1.37-3.281,0.681c-0.54-0.439-0.84-1.242-0.729-2.05c0.204-1.485,1.495-2.219,3.464-2.143
			c0.067-0.161,0.029-0.426,0.136-0.546C131.075,4.703,132.578,8.94,130.907,11.731z M110.761,7.448
			c-0.948,0.13-1.472,1.047-1.457,2.095c0.024,1.931,2.099,3.186,4.101,3.01c1.995-0.176,3.215-1.548,3.372-3.738
			c-0.354-0.025-0.815,0.055-1.093-0.046c0.03-0.29-0.061-0.696,0.045-0.912c0.363,0,0.729,0,1.093,0
			c0.084-3.27-2.585-4.533-5.833-4.284c-2.691,0.208-4.624,1.86-5.423,3.875c-0.533-0.157-1.436-0.128-1.869,0.091
			c1.114,1.669,2.741,3.083,4.239,4.191c-1.81-2.554-0.285-7.133,3.19-6.88c-0.009,0.22,0.037,0.389,0.091,0.546
			c1.976-0.187,3.473,0.926,3.464,2.555c-0.009,1.425-1.301,2.237-2.644,2.14c-0.671-0.05-1.396-0.328-1.367-1.229
			C112.398,9.178,112.288,7.241,110.761,7.448z M139.703,6.31c-0.506-0.607-1.539-0.314-1.825,0.272
			C138.532,6.537,139.387,6.693,139.703,6.31z M98.956,6.354c0.409,0.276,1.35,0.263,1.96,0.183
			C100.474,6.121,99.503,5.586,98.956,6.354z M136.009,6.172c0.101-0.264,0.341-0.389,0.412-0.683
			c-0.404-0.08-1.143-0.196-1.459,0.045C135.105,5.954,135.595,6.026,136.009,6.172z M102.83,6.172
			c0.33-0.201,0.82-0.243,0.958-0.638c-0.319-0.226-1.06-0.141-1.458-0.045C102.344,5.696,102.586,6.048,102.83,6.172z"/>
		<path fill-rule="evenodd" clip-rule="evenodd" fill="#666666" d="M101.965,1.888C101.96,1.834,102.033,1.862,101.965,1.888
			L101.965,1.888z"/>
	</g>
	<g>
		<polygon fill="#666666" points="216.731,19.451 21.883,19.451 21.883,17.849 216.731,17.849 216.731,19.451 		"/>
	</g>
	<polygon fill-rule="evenodd" clip-rule="evenodd" fill="#666666" points="110.15,13.368 4.912,12.277 -0.457,13.368 4.912,14.465 	
		"/>
	<polygon fill-rule="evenodd" clip-rule="evenodd" fill="#666666" points="133.395,13.368 238.633,12.277 244,13.368 
		238.633,14.465 	"/>
</g>
</svg>
